<svg id="Layer_1" data-name="Layer 1" xmlns="http://www.w3.org/2000/svg" viewBox="0 0 135.71 54.94"><defs><style>.cls-1{fill:#2b2d2d;}.cls-2{fill:#d6d6d6;}.cls-3{fill:#b0b0b0;}.cls-4{fill:#99c356;}</style></defs><path class="cls-1" d="M18.6,55.3h98.09a7,7,0,0,0,6-3.49l11.83-20.49a7,7,0,0,0,0-7L122.73,3.85a7,7,0,0,0-6-3.49H18.6a7,7,0,0,0-6,3.49L.73,24.34a7,7,0,0,0,0,7L12.56,51.81A7,7,0,0,0,18.6,55.3Z"/><path class="cls-2" d="M69,37.57H58.31V18.09H69v1.25H59.67v7.37h8.77V28H59.67v8.36H69Z"/><path class="cls-2" d="M76.5,30.12l-5-7H73l4.32,6.11,4.28-6.11H83l-5,7,5.33,7.45H81.85l-4.56-6.46-4.58,6.46H71.25Z"/><path class="cls-2" d="M90.73,36.66a10,10,0,0,0,2.19-.21v1.07a7.1,7.1,0,0,1-2.21.32,3.64,3.64,0,0,1-2.84-1A4.81,4.81,0,0,1,87,33.58V24.23H84.82v-.77l2.14-.6.67-3.28h.68v3.5h4.25v1.15H88.31V33.4a4.17,4.17,0,0,0,.58,2.46A2.12,2.12,0,0,0,90.73,36.66Z"/><path class="cls-3" d="M100.27,42.49a4.89,4.89,0,0,1-2-.36V41a7.92,7.92,0,0,0,2,.27q3.23,0,3.22-3.52V18.09h1.36V37.57Q104.83,42.49,100.27,42.49Z"/><path class="cls-3" d="M120,32.55a4.67,4.67,0,0,1-1.8,3.86,7.42,7.42,0,0,1-4.76,1.43,15,15,0,0,1-5.48-.79V35.69a13.82,13.82,0,0,0,5.37.89,6,6,0,0,0,3.81-1.1,3.49,3.49,0,0,0,1.4-2.88,3.31,3.31,0,0,0-.46-1.83,4.22,4.22,0,0,0-1.52-1.33,18.45,18.45,0,0,0-3.09-1.29,10.76,10.76,0,0,1-4.13-2.22,4.41,4.41,0,0,1-1.14-3.18,4.34,4.34,0,0,1,1.72-3.56,6.77,6.77,0,0,1,4.4-1.38,12.79,12.79,0,0,1,5.16,1L119,20a11.89,11.89,0,0,0-4.63-1,5.41,5.41,0,0,0-3.44,1,3.26,3.26,0,0,0-1.28,2.71A3.61,3.61,0,0,0,110,24.5a3.59,3.59,0,0,0,1.29,1.24,17.46,17.46,0,0,0,3.06,1.33,16.7,16.7,0,0,1,3.43,1.52,5,5,0,0,1,1.67,1.68A4.63,4.63,0,0,1,120,32.55Z"/><path class="cls-4" d="M39.8,25.24c-2.67-2.62-6.44-3.73-9.75-5.49A8.36,8.36,0,0,1,27.67,18a4.89,4.89,0,0,1,.78-7.19A12.45,12.45,0,0,0,20.76,19a11.64,11.64,0,0,0,2.57,10.87C26.06,32.82,30.13,34,33.66,36a7.85,7.85,0,0,1,2.26,1.64,4.82,4.82,0,0,1,1.13,3.84,5,5,0,0,1-2.11,3.4,12.37,12.37,0,0,0,7.93-8.46A11.81,11.81,0,0,0,39.8,25.24Z"/></svg>